# xmcd
#
# Track frame offsets: 
#        150
#        20905
#        40640
#        54650
#        70657
#        93250
#        110442
#        128505
#        145970
#        158245
#
# Disc length: 2385 seconds
#
# Revision: 0
# Processed by: cddbd v1.5.2PL0 Copyright (c) Steve Scherf et al.
# Submitted via: ExactAudioCopy v1.0b2
#
DISCID=81094f0a
DTITLE=Anna Tschernjawskaja - Die Liebe bleibt
DYEAR=1989
DGENRE=Folklore
TTITLE0=Melodie der Hoffnung
TTITLE1=Süße Beere
TTITLE2=In Erinnerung an Dich
TTITLE3=Lustige Quadrille
TTITLE4=Elegua
TTITLE5=Die Liebe bleibt
TTITLE6=Was habe ich Dir getan
TTITLE7=Die Wolken
TTITLE8=Tarentelle 
TTITLE9=Tango-Wellen
EXTD=
EXTT0=
EXTT1=
EXTT2=
EXTT3=
EXTT4=
EXTT5=
EXTT6=
EXTT7=
EXTT8=
EXTT9=
PLAYORDER=
